<svg width="207" height="49" viewBox="0 0 207 49" fill="none" xmlns="http://www.w3.org/2000/svg">
<path d="M84.4653 6.03365H85.499V5H84.4653V6.03365ZM84.4653 34.9005V35.9341H85.499V34.9005H84.4653ZM78.5454 34.9005L77.6945 35.4871L78.0026 35.9341H78.5454V34.9005ZM67.0579 18.24L67.9088 17.6533L67.6008 17.2064H67.0579V18.24ZM66.8748 18.24V17.2064H65.8411V18.24H66.8748ZM66.8748 34.9005V35.9341H67.9084V34.9005H66.8748ZM59.8977 34.9005H58.864V35.9341H59.8977V34.9005ZM59.8977 6.03365V5H58.864V6.03365H59.8977ZM65.9023 6.03365L66.7557 5.45063L66.4481 5H65.9023V6.03365ZM77.2629 22.6659L76.4095 23.2489L76.7171 23.6995H77.2629V22.6659ZM77.5027 22.6659V23.6995H78.5363V22.6659H77.5027ZM77.5027 6.03365V5H76.4691V6.03365H77.5027ZM83.4317 6.03365V34.9005H85.499V6.03365H83.4317ZM84.4653 33.8669H78.5454V35.9341H84.4653V33.8669ZM79.3963 34.3138L67.9088 17.6533L66.207 18.8268L77.6945 35.4871L79.3963 34.3138ZM67.0579 17.2064H66.8748V19.2737H67.0579V17.2064ZM65.8411 18.24V34.9005H67.9084V18.24H65.8411ZM66.8748 33.8669H59.8977V35.9341H66.8748V33.8669ZM60.9313 34.9005V6.03365H58.864V34.9005H60.9313ZM59.8977 7.06729H65.9023V5H59.8977V7.06729ZM65.0485 6.61662L76.4095 23.2489L78.1163 22.0829L66.7557 5.45063L65.0485 6.61662ZM77.2629 23.6995H77.5027V21.6323H77.2629V23.6995ZM78.5363 22.6659V6.03365H76.4691V22.6659H78.5363ZM77.5027 7.06729H84.4653V5H77.5027V7.06729ZM93.1095 33.9702L92.61 34.8753L92.6129 34.877L92.6162 34.8787L93.1095 33.9702ZM89.3317 30.1222L88.4159 30.6009L88.4172 30.604L88.4188 30.6071L89.3317 30.1222ZM89.3458 18.2964L90.2599 18.7791L90.2612 18.777L89.3458 18.2964ZM93.0814 14.378L93.599 15.2725L93.6032 15.2703L93.0814 14.378ZM108.473 19.2972L107.505 19.6594L107.506 19.6616L108.473 19.2972ZM109.248 25.7387V26.7723H110.282V25.7387H109.248ZM90.4311 25.7387H89.3975V26.7723H90.4311V25.7387ZM90.4311 21.7356V20.702H89.3975V21.7356H90.4311ZM102.835 21.7356V22.7693H103.882L103.868 21.7224L102.835 21.7356ZM100.918 18.4374L100.41 19.3375L100.419 19.3423L100.427 19.347L100.918 18.4374ZM96.8306 18.4655L97.3313 19.3698L97.3367 19.3668L97.3417 19.3639L96.8306 18.4655ZM95.3786 19.861L96.26 20.4011L96.2617 20.398L96.2638 20.3949L95.3786 19.861ZM94.815 21.8484L93.7814 21.8222V21.8353V21.8484H94.815ZM95.3364 28.2476L94.4197 28.7253L94.421 28.728L94.4226 28.7306L95.3364 28.2476ZM102.849 28.1207L102.879 27.0875L102.139 27.0661L101.881 27.7599L102.849 28.1207ZM109.178 28.304L110.194 28.4924L110.414 27.3057L109.208 27.2708L109.178 28.304ZM107.444 32.011L106.656 31.3424L106.655 31.343L107.444 32.011ZM103.963 34.4495L104.346 35.4096L104.351 35.4074L103.963 34.4495ZM98.9732 34.2756C96.8447 34.2756 95.0668 33.8567 93.6023 33.0618L92.6162 34.8787C94.4408 35.8692 96.5722 36.343 98.9732 36.343V34.2756ZM93.6085 33.0652C92.1511 32.2609 91.0348 31.125 90.2446 29.6374L88.4188 30.6071C89.3954 32.446 90.7979 33.8754 92.61 34.8753L93.6085 33.0652ZM90.248 29.6436C89.4665 28.1478 89.0547 26.3317 89.0547 24.16H86.9874C86.9874 26.5927 87.4493 28.7515 88.4159 30.6009L90.248 29.6436ZM89.0547 24.16C89.0547 22.0612 89.4686 20.2781 90.2599 18.7791L88.432 17.8137C87.4571 19.66 86.9874 21.786 86.9874 24.16H89.0547ZM90.2612 18.777C91.0559 17.2635 92.1652 16.1027 93.599 15.2725L92.5633 13.4834C90.7834 14.5138 89.4024 15.9654 88.4308 17.8158L90.2612 18.777ZM93.6032 15.2703C95.0263 14.4379 96.733 14.0021 98.7615 14.0021V11.9348C96.43 11.9348 94.3499 12.4386 92.5592 13.4857L93.6032 15.2703ZM98.7615 14.0021C100.195 14.0021 101.479 14.2247 102.627 14.6552L103.353 12.7195C101.945 12.1915 100.411 11.9348 98.7615 11.9348V14.0021ZM102.627 14.6552C103.77 15.0837 104.746 15.7128 105.568 16.5429L107.037 15.0885C105.998 14.0392 104.766 13.2494 103.353 12.7195L102.627 14.6552ZM105.568 16.5429C106.384 17.3674 107.034 18.399 107.505 19.6594L109.441 18.9349C108.879 17.4327 108.081 16.1433 107.037 15.0885L105.568 16.5429ZM107.506 19.6616C107.97 20.8953 108.215 22.342 108.215 24.0191H110.282C110.282 22.1442 110.009 20.4429 109.44 18.9328L107.506 19.6616ZM108.215 24.0191V25.7387H110.282V24.0191H108.215ZM109.248 24.705H90.4311V26.7723H109.248V24.705ZM91.4648 25.7387V21.7356H89.3975V25.7387H91.4648ZM90.4311 22.7693H102.835V20.702H90.4311V22.7693ZM103.868 21.7224C103.857 20.8279 103.643 19.9949 103.204 19.2511L101.423 20.3018C101.661 20.7043 101.794 21.1775 101.802 21.7489L103.868 21.7224ZM103.204 19.2511C102.769 18.514 102.165 17.9356 101.409 17.5277L100.427 19.347C100.856 19.5782 101.182 19.8924 101.423 20.3018L103.204 19.2511ZM101.426 17.5372C100.668 17.1094 99.8166 16.9104 98.9025 16.9104V18.9777C99.5107 18.9777 100.003 19.1076 100.41 19.3375L101.426 17.5372ZM98.9025 16.9104C97.9705 16.9104 97.1006 17.1225 96.3192 17.5673L97.3417 19.3639C97.782 19.1133 98.2934 18.9777 98.9025 18.9777V16.9104ZM96.3295 17.5614C95.5621 17.9864 94.9453 18.5785 94.4938 19.3271L96.2638 20.3949C96.5263 19.9594 96.8773 19.6213 97.3313 19.3698L96.3295 17.5614ZM94.4975 19.3208C94.0373 20.0717 93.8045 20.9144 93.7814 21.8222L95.8482 21.8745C95.8627 21.2977 96.0062 20.8155 96.26 20.4011L94.4975 19.3208ZM93.7814 21.8484V25.9219H95.8487V21.8484H93.7814ZM93.7814 25.9219C93.7814 26.9426 93.9827 27.8869 94.4197 28.7253L96.253 27.7699C95.9946 27.2739 95.8487 26.6678 95.8487 25.9219H93.7814ZM94.4226 28.7306C94.8605 29.5594 95.4918 30.2158 96.3022 30.6806L97.3305 28.8873C96.8633 28.6192 96.5077 28.2513 96.2501 27.7646L94.4226 28.7306ZM96.3022 30.6806C97.1262 31.1532 98.0722 31.3673 99.0997 31.3673V29.3C98.3608 29.3 97.7845 29.1477 97.3305 28.8873L96.3022 30.6806ZM99.0997 31.3673C99.8059 31.3673 100.475 31.2696 101.095 31.0587L100.431 29.1013C100.055 29.2287 99.6153 29.3 99.0997 29.3V31.3673ZM101.095 31.0587C101.719 30.8471 102.274 30.5277 102.746 30.0932L101.346 28.5726C101.103 28.7959 100.804 28.9745 100.431 29.1013L101.095 31.0587ZM102.746 30.0932C103.229 29.6483 103.586 29.1049 103.818 28.4816L101.881 27.7599C101.756 28.0951 101.576 28.3598 101.346 28.5726L102.746 30.0932ZM102.819 29.154L109.148 29.3372L109.208 27.2708L102.879 27.0875L102.819 29.154ZM108.161 28.1155C107.93 29.3657 107.427 30.4338 106.656 31.3424L108.233 32.6797C109.247 31.4834 109.9 30.0801 110.194 28.4924L108.161 28.1155ZM106.655 31.343C105.894 32.2421 104.878 32.9632 103.575 33.4915L104.351 35.4074C105.923 34.7706 107.227 33.8667 108.233 32.6797L106.655 31.343ZM103.58 33.4893C102.287 34.0046 100.758 34.2756 98.9732 34.2756V36.343C100.965 36.343 102.762 36.0407 104.346 35.4096L103.58 33.4893ZM118.322 13.2503L119.247 12.7881L118.961 12.2167H118.322V13.2503ZM121.888 20.3825L120.964 20.8447L121.872 22.6616L122.806 20.8578L121.888 20.3825ZM125.581 13.2503V12.2167H124.952L124.663 12.7751L125.581 13.2503ZM132.53 13.2503L133.432 13.7544L134.292 12.2167H132.53V13.2503ZM126.483 24.0754L125.581 23.5714L125.294 24.0848L125.589 24.5936L126.483 24.0754ZM132.756 34.9005V35.9341H134.549L133.65 34.3823L132.756 34.9005ZM125.863 34.9005L124.959 35.4007L125.253 35.9341H125.863V34.9005ZM121.888 27.712L122.793 27.2118L121.877 25.5553L120.978 27.2214L121.888 27.712ZM118.012 34.9005V35.9341H118.629L118.922 35.3911L118.012 34.9005ZM111.021 34.9005L110.127 34.3814L109.225 35.9341H111.021V34.9005ZM117.307 24.0754L118.201 24.5945L118.495 24.0883L118.212 23.5758L117.307 24.0754ZM111.331 13.2503V12.2167H109.58L110.426 13.7499L111.331 13.2503ZM117.398 13.7126L120.964 20.8447L122.813 19.9203L119.247 12.7881L117.398 13.7126ZM122.806 20.8578L126.499 13.7256L124.663 12.7751L120.97 19.9072L122.806 20.8578ZM125.581 14.284H132.53V12.2167H125.581V14.284ZM131.628 12.7463L125.581 23.5714L127.386 24.5795L133.432 13.7544L131.628 12.7463ZM125.589 24.5936L131.861 35.4187L133.65 34.3823L127.378 23.5572L125.589 24.5936ZM132.756 33.8669H125.863V35.9341H132.756V33.8669ZM126.767 34.4003L122.793 27.2118L120.984 28.2122L124.959 35.4007L126.767 34.4003ZM120.978 27.2214L117.102 34.4099L118.922 35.3911L122.798 28.2026L120.978 27.2214ZM118.012 33.8669H111.021V35.9341H118.012V33.8669ZM111.915 35.4196L118.201 24.5945L116.413 23.5564L110.127 34.3814L111.915 35.4196ZM118.212 23.5758L112.236 12.7508L110.426 13.7499L116.402 24.575L118.212 23.5758ZM111.331 14.284H118.322V12.2167H111.331V14.284ZM139.144 33.9139L138.627 34.8088L138.63 34.8105L138.633 34.8123L139.144 33.9139ZM135.381 29.9954L134.464 30.4719L134.465 30.475L134.467 30.4781L135.381 29.9954ZM135.381 18.2964L134.466 17.8158L134.465 17.8178L135.381 18.2964ZM139.144 14.378L139.657 15.2751L139.659 15.2741L139.144 14.378ZM150.857 14.378L150.34 15.2729L150.343 15.2746L150.346 15.2764L150.857 14.378ZM154.62 18.2964L153.703 18.773L153.705 18.776L153.707 18.7791L154.62 18.2964ZM154.62 29.9954L153.705 29.5148L153.705 29.5167L154.62 29.9954ZM150.857 33.9139L151.371 34.811L151.372 34.81L150.857 33.9139ZM148.461 27.2328L147.483 26.8967L147.482 26.9013L147.48 26.9059L148.461 27.2328ZM148.461 20.9463L147.48 21.2732L147.482 21.2778L147.483 21.2823L148.461 20.9463ZM142.88 18.832L142.207 18.0472L142.203 18.0499L142.201 18.0526L142.88 18.832ZM141.54 20.9463L140.563 20.6103L140.561 20.6149L140.56 20.6195L141.54 20.9463ZM141.54 27.2328L140.56 27.5596L140.561 27.5642L140.563 27.5688L141.54 27.2328ZM142.88 29.347L142.201 30.1265L142.203 30.1292L142.207 30.1318L142.88 29.347ZM145.008 34.2756C142.876 34.2756 141.105 33.8403 139.655 33.0155L138.633 34.8123C140.453 35.8481 142.592 36.343 145.008 36.343V34.2756ZM139.662 33.019C138.205 32.1774 137.088 31.0147 136.295 29.5127L134.467 30.4781C135.44 32.3213 136.831 33.771 138.627 34.8088L139.662 33.019ZM136.298 29.5188C135.513 28.0072 135.104 26.2259 135.104 24.1459H133.036C133.036 26.5012 133.501 28.6196 134.464 30.4719L136.298 29.5188ZM135.104 24.1459C135.104 22.0556 135.513 20.2755 136.297 18.7751L134.465 17.8178C133.501 19.6626 133.036 21.7821 133.036 24.1459H135.104ZM136.296 18.777C137.089 17.2666 138.205 16.1061 139.657 15.2751L138.631 13.4808C136.832 14.5104 135.439 15.9622 134.466 17.8158L136.296 18.777ZM139.659 15.2741C141.108 14.4414 142.877 14.0021 145.008 14.0021V11.9348C142.59 11.9348 140.45 12.4352 138.629 13.4818L139.659 15.2741ZM145.008 14.0021C147.139 14.0021 148.902 14.4415 150.34 15.2729L151.374 13.4831C149.561 12.4351 147.425 11.9348 145.008 11.9348V14.0021ZM150.346 15.2764C151.806 16.1073 152.921 17.2663 153.703 18.773L155.538 17.8199C154.573 15.9625 153.178 14.5092 151.368 13.4796L150.346 15.2764ZM153.707 18.7791C154.498 20.2786 154.912 22.0573 154.912 24.1459H156.979C156.979 21.7805 156.51 19.6594 155.535 17.8137L153.707 18.7791ZM154.912 24.1459C154.912 26.2242 154.499 28.004 153.705 29.5148L155.536 30.476C156.509 28.6227 156.979 26.5029 156.979 24.1459H154.912ZM153.705 29.5167C152.922 31.0149 151.806 32.1762 150.342 33.0177L151.372 34.81C153.178 33.7722 154.572 32.3211 155.537 30.4741L153.705 29.5167ZM150.344 33.0167C148.905 33.8402 147.14 34.2756 145.008 34.2756V36.343C147.423 36.343 149.559 35.8481 151.371 34.811L150.344 33.0167ZM145.05 31.1418C146.107 31.1418 147.057 30.8097 147.835 30.121L146.465 28.5731C146.097 28.8992 145.646 29.0745 145.05 29.0745V31.1418ZM147.835 30.121C148.574 29.4672 149.097 28.5928 149.441 27.5596L147.48 26.9059C147.223 27.6769 146.873 28.212 146.465 28.5731L147.835 30.121ZM149.439 27.5688C149.793 26.5361 149.96 25.3755 149.96 24.1036H147.893C147.893 25.1997 147.749 26.1253 147.483 26.8967L149.439 27.5688ZM149.96 24.1036C149.96 22.815 149.794 21.6445 149.439 20.6103L147.483 21.2823C147.748 22.0523 147.893 22.9867 147.893 24.1036H149.96ZM149.441 20.6195C149.097 19.5863 148.574 18.7119 147.835 18.0581L146.465 19.606C146.873 19.967 147.223 20.5022 147.48 21.2732L149.441 20.6195ZM147.835 18.0581C147.057 17.3693 146.107 17.0373 145.05 17.0373V19.1045C145.646 19.1045 146.097 19.2799 146.465 19.606L147.835 18.0581ZM145.05 17.0373C143.974 17.0373 143.005 17.3633 142.207 18.0472L143.552 19.6169C143.938 19.2859 144.416 19.1045 145.05 19.1045V17.0373ZM142.201 18.0526C141.453 18.704 140.918 19.5767 140.563 20.6103L142.518 21.2823C142.783 20.5118 143.141 19.9749 143.558 19.6115L142.201 18.0526ZM140.56 20.6195C140.216 21.6506 140.056 22.8178 140.056 24.1036H142.123C142.123 22.9839 142.263 22.0462 142.521 21.2732L140.56 20.6195ZM140.056 24.1036C140.056 25.3726 140.216 26.53 140.56 27.5596L142.521 26.9059C142.263 26.1314 142.123 25.2026 142.123 24.1036H140.056ZM140.563 27.5688C140.918 28.6024 141.453 29.475 142.201 30.1265L143.558 28.5676C143.141 28.2042 142.783 27.6673 142.518 26.8967L140.563 27.5688ZM142.207 30.1318C143.005 30.8158 143.974 31.1418 145.05 31.1418V29.0745C144.416 29.0745 143.938 28.8931 143.552 28.5622L142.207 30.1318Z" fill="url(#paint0_linear_1_7)"/>
<path d="M59.98 46V44.548H62.128C62.672 44.548 63.148 44.436 63.556 44.212C63.964 43.98 64.28 43.656 64.504 43.24C64.736 42.824 64.852 42.332 64.852 41.764C64.852 41.212 64.736 40.732 64.504 40.324C64.272 39.908 63.952 39.588 63.544 39.364C63.136 39.132 62.664 39.016 62.128 39.016H59.944V37.564H62.152C62.776 37.564 63.352 37.668 63.88 37.876C64.416 38.084 64.88 38.38 65.272 38.764C65.672 39.14 65.98 39.584 66.196 40.096C66.42 40.608 66.532 41.168 66.532 41.776C66.532 42.384 66.42 42.948 66.196 43.468C65.98 43.98 65.676 44.428 65.284 44.812C64.892 45.188 64.428 45.48 63.892 45.688C63.364 45.896 62.792 46 62.176 46H59.98ZM58.864 46V37.564H60.496V46H58.864ZM70.0848 46.12C69.5568 46.12 69.0808 45.988 68.6568 45.724C68.2328 45.46 67.9008 45.1 67.6608 44.644C67.4208 44.188 67.3008 43.676 67.3008 43.108C67.3008 42.532 67.4208 42.016 67.6608 41.56C67.9008 41.104 68.2328 40.744 68.6568 40.48C69.0808 40.216 69.5568 40.084 70.0848 40.084C70.5008 40.084 70.8728 40.168 71.2008 40.336C71.5288 40.504 71.7888 40.74 71.9808 41.044C72.1808 41.34 72.2888 41.676 72.3048 42.052V44.14C72.2888 44.524 72.1808 44.864 71.9808 45.16C71.7888 45.456 71.5288 45.692 71.2008 45.868C70.8728 46.036 70.5008 46.12 70.0848 46.12ZM70.3728 44.668C70.8128 44.668 71.1688 44.524 71.4408 44.236C71.7128 43.94 71.8488 43.56 71.8488 43.096C71.8488 42.792 71.7848 42.524 71.6568 42.292C71.5368 42.052 71.3648 41.868 71.1408 41.74C70.9248 41.604 70.6688 41.536 70.3728 41.536C70.0848 41.536 69.8288 41.604 69.6048 41.74C69.3888 41.868 69.2168 42.052 69.0888 42.292C68.9688 42.524 68.9088 42.792 68.9088 43.096C68.9088 43.408 68.9688 43.684 69.0888 43.924C69.2168 44.156 69.3888 44.34 69.6048 44.476C69.8288 44.604 70.0848 44.668 70.3728 44.668ZM71.7648 46V44.44L72.0168 43.024L71.7648 41.632V40.204H73.3248V46H71.7648ZM76.7075 46.132C76.3795 46.132 76.0555 46.088 75.7355 46C75.4235 45.912 75.1355 45.792 74.8715 45.64C74.6075 45.48 74.3795 45.288 74.1875 45.064L75.1235 44.116C75.3235 44.34 75.5555 44.508 75.8195 44.62C76.0835 44.732 76.3755 44.788 76.6955 44.788C76.9515 44.788 77.1435 44.752 77.2715 44.68C77.4075 44.608 77.4755 44.5 77.4755 44.356C77.4755 44.196 77.4035 44.072 77.2595 43.984C77.1235 43.896 76.9435 43.824 76.7195 43.768C76.4955 43.704 76.2595 43.636 76.0115 43.564C75.7715 43.484 75.5395 43.384 75.3155 43.264C75.0915 43.136 74.9075 42.964 74.7635 42.748C74.6275 42.524 74.5595 42.236 74.5595 41.884C74.5595 41.516 74.6475 41.196 74.8235 40.924C75.0075 40.652 75.2675 40.44 75.6035 40.288C75.9395 40.136 76.3355 40.06 76.7915 40.06C77.2715 40.06 77.7035 40.144 78.0875 40.312C78.4795 40.48 78.8035 40.732 79.0595 41.068L78.1115 42.016C77.9355 41.8 77.7355 41.644 77.5115 41.548C77.2955 41.452 77.0595 41.404 76.8035 41.404C76.5715 41.404 76.3915 41.44 76.2635 41.512C76.1435 41.584 76.0835 41.684 76.0835 41.812C76.0835 41.956 76.1515 42.068 76.2875 42.148C76.4315 42.228 76.6155 42.3 76.8395 42.364C77.0635 42.42 77.2955 42.488 77.5355 42.568C77.7835 42.64 78.0155 42.744 78.2315 42.88C78.4555 43.016 78.6355 43.196 78.7715 43.42C78.9155 43.644 78.9875 43.932 78.9875 44.284C78.9875 44.852 78.7835 45.304 78.3755 45.64C77.9675 45.968 77.4115 46.132 76.7075 46.132ZM83.9476 46V42.676C83.9476 42.332 83.8396 42.052 83.6236 41.836C83.4076 41.62 83.1276 41.512 82.7836 41.512C82.5596 41.512 82.3596 41.56 82.1836 41.656C82.0076 41.752 81.8676 41.888 81.7636 42.064C81.6676 42.24 81.6196 42.444 81.6196 42.676L81.0076 42.364C81.0076 41.908 81.1036 41.512 81.2956 41.176C81.4876 40.832 81.7516 40.564 82.0876 40.372C82.4316 40.18 82.8236 40.084 83.2636 40.084C83.7036 40.084 84.0916 40.18 84.4276 40.372C84.7716 40.564 85.0396 40.828 85.2316 41.164C85.4236 41.5 85.5196 41.888 85.5196 42.328V46H83.9476ZM80.0476 46V37.324H81.6196V46H80.0476ZM90.0018 46.12C89.5858 46.12 89.2098 46.032 88.8738 45.856C88.5378 45.68 88.2698 45.44 88.0698 45.136C87.8698 44.832 87.7618 44.492 87.7458 44.116V42.052C87.7618 41.676 87.8698 41.34 88.0698 41.044C88.2778 40.74 88.5498 40.504 88.8858 40.336C89.2218 40.168 89.5938 40.084 90.0018 40.084C90.5378 40.084 91.0178 40.216 91.4418 40.48C91.8658 40.744 92.1978 41.104 92.4378 41.56C92.6858 42.016 92.8098 42.532 92.8098 43.108C92.8098 43.676 92.6858 44.188 92.4378 44.644C92.1978 45.1 91.8658 45.46 91.4418 45.724C91.0178 45.988 90.5378 46.12 90.0018 46.12ZM89.7378 44.668C90.0258 44.668 90.2778 44.604 90.4938 44.476C90.7178 44.34 90.8898 44.156 91.0098 43.924C91.1378 43.684 91.2018 43.408 91.2018 43.096C91.2018 42.792 91.1378 42.524 91.0098 42.292C90.8898 42.052 90.7178 41.868 90.4938 41.74C90.2698 41.604 90.0138 41.536 89.7258 41.536C89.4378 41.536 89.1818 41.604 88.9578 41.74C88.7418 41.868 88.5698 42.052 88.4418 42.292C88.3218 42.524 88.2618 42.792 88.2618 43.096C88.2618 43.408 88.3218 43.684 88.4418 43.924C88.5698 44.156 88.7458 44.34 88.9698 44.476C89.1938 44.604 89.4498 44.668 89.7378 44.668ZM86.7858 46V37.324H88.3578V41.632L88.0938 43.024L88.3458 44.44V46H86.7858ZM96.5645 46.12C95.9805 46.12 95.4525 45.988 94.9805 45.724C94.5165 45.452 94.1445 45.088 93.8645 44.632C93.5925 44.168 93.4565 43.652 93.4565 43.084C93.4565 42.516 93.5925 42.008 93.8645 41.56C94.1365 41.104 94.5085 40.744 94.9805 40.48C95.4525 40.208 95.9765 40.072 96.5525 40.072C97.1445 40.072 97.6725 40.208 98.1365 40.48C98.6085 40.744 98.9805 41.104 99.2525 41.56C99.5245 42.008 99.6605 42.516 99.6605 43.084C99.6605 43.652 99.5245 44.168 99.2525 44.632C98.9805 45.088 98.6085 45.452 98.1365 45.724C97.6725 45.988 97.1485 46.12 96.5645 46.12ZM96.5525 44.656C96.8485 44.656 97.1085 44.592 97.3325 44.464C97.5645 44.328 97.7405 44.144 97.8605 43.912C97.9885 43.672 98.0525 43.4 98.0525 43.096C98.0525 42.792 97.9885 42.524 97.8605 42.292C97.7325 42.06 97.5565 41.88 97.3325 41.752C97.1085 41.616 96.8485 41.548 96.5525 41.548C96.2645 41.548 96.0085 41.616 95.7845 41.752C95.5605 41.88 95.3845 42.06 95.2565 42.292C95.1285 42.524 95.0645 42.792 95.0645 43.096C95.0645 43.4 95.1285 43.672 95.2565 43.912C95.3845 44.144 95.5605 44.328 95.7845 44.464C96.0085 44.592 96.2645 44.656 96.5525 44.656ZM103.097 46.12C102.569 46.12 102.093 45.988 101.669 45.724C101.245 45.46 100.913 45.1 100.673 44.644C100.433 44.188 100.313 43.676 100.313 43.108C100.313 42.532 100.433 42.016 100.673 41.56C100.913 41.104 101.245 40.744 101.669 40.48C102.093 40.216 102.569 40.084 103.097 40.084C103.513 40.084 103.885 40.168 104.213 40.336C104.541 40.504 104.801 40.74 104.993 41.044C105.193 41.34 105.301 41.676 105.317 42.052V44.14C105.301 44.524 105.193 44.864 104.993 45.16C104.801 45.456 104.541 45.692 104.213 45.868C103.885 46.036 103.513 46.12 103.097 46.12ZM103.385 44.668C103.825 44.668 104.181 44.524 104.453 44.236C104.725 43.94 104.861 43.56 104.861 43.096C104.861 42.792 104.797 42.524 104.669 42.292C104.549 42.052 104.377 41.868 104.153 41.74C103.937 41.604 103.681 41.536 103.385 41.536C103.097 41.536 102.841 41.604 102.617 41.74C102.401 41.868 102.229 42.052 102.101 42.292C101.981 42.524 101.921 42.792 101.921 43.096C101.921 43.408 101.981 43.684 102.101 43.924C102.229 44.156 102.401 44.34 102.617 44.476C102.841 44.604 103.097 44.668 103.385 44.668ZM104.777 46V44.44L105.029 43.024L104.777 41.632V40.204H106.337V46H104.777ZM107.727 46V40.204H109.299V46H107.727ZM109.299 42.796L108.687 42.388C108.759 41.676 108.967 41.116 109.311 40.708C109.655 40.292 110.151 40.084 110.799 40.084C111.079 40.084 111.331 40.132 111.555 40.228C111.779 40.316 111.983 40.464 112.167 40.672L111.183 41.8C111.095 41.704 110.987 41.632 110.859 41.584C110.739 41.536 110.599 41.512 110.439 41.512C110.103 41.512 109.827 41.62 109.611 41.836C109.403 42.044 109.299 42.364 109.299 42.796ZM115.003 46.12C114.467 46.12 113.987 45.988 113.563 45.724C113.139 45.46 112.803 45.1 112.555 44.644C112.315 44.188 112.195 43.676 112.195 43.108C112.195 42.532 112.315 42.016 112.555 41.56C112.803 41.104 113.135 40.744 113.551 40.48C113.975 40.216 114.459 40.084 115.003 40.084C115.419 40.084 115.791 40.168 116.119 40.336C116.455 40.504 116.723 40.74 116.923 41.044C117.131 41.34 117.243 41.676 117.259 42.052V44.116C117.243 44.492 117.135 44.832 116.935 45.136C116.735 45.44 116.467 45.68 116.131 45.856C115.795 46.032 115.419 46.12 115.003 46.12ZM115.267 44.668C115.563 44.668 115.819 44.604 116.035 44.476C116.259 44.34 116.431 44.156 116.551 43.924C116.679 43.684 116.743 43.408 116.743 43.096C116.743 42.792 116.679 42.524 116.551 42.292C116.431 42.052 116.259 41.868 116.035 41.74C115.819 41.604 115.567 41.536 115.279 41.536C114.983 41.536 114.723 41.604 114.499 41.74C114.283 41.876 114.111 42.06 113.983 42.292C113.863 42.524 113.803 42.792 113.803 43.096C113.803 43.408 113.863 43.684 113.983 43.924C114.111 44.156 114.287 44.34 114.511 44.476C114.735 44.604 114.987 44.668 115.267 44.668ZM118.219 46H116.659V44.44L116.911 43.024L116.647 41.632V37.324H118.219V46ZM123.322 42.868V41.536H125.278C125.534 41.536 125.766 41.484 125.974 41.38C126.182 41.276 126.346 41.128 126.466 40.936C126.586 40.736 126.646 40.496 126.646 40.216C126.646 39.944 126.586 39.708 126.466 39.508C126.346 39.308 126.182 39.156 125.974 39.052C125.766 38.948 125.534 38.896 125.278 38.896H123.322V37.564H125.446C125.982 37.564 126.462 37.672 126.886 37.888C127.318 38.104 127.658 38.412 127.906 38.812C128.154 39.204 128.278 39.672 128.278 40.216C128.278 40.76 128.154 41.232 127.906 41.632C127.658 42.024 127.318 42.328 126.886 42.544C126.462 42.76 125.982 42.868 125.446 42.868H123.322ZM122.122 46V37.564H123.754V46H122.122ZM131.503 46.12C130.975 46.12 130.499 45.988 130.075 45.724C129.651 45.46 129.319 45.1 129.079 44.644C128.839 44.188 128.719 43.676 128.719 43.108C128.719 42.532 128.839 42.016 129.079 41.56C129.319 41.104 129.651 40.744 130.075 40.48C130.499 40.216 130.975 40.084 131.503 40.084C131.919 40.084 132.291 40.168 132.619 40.336C132.947 40.504 133.207 40.74 133.399 41.044C133.599 41.34 133.707 41.676 133.723 42.052V44.14C133.707 44.524 133.599 44.864 133.399 45.16C133.207 45.456 132.947 45.692 132.619 45.868C132.291 46.036 131.919 46.12 131.503 46.12ZM131.791 44.668C132.231 44.668 132.587 44.524 132.859 44.236C133.131 43.94 133.267 43.56 133.267 43.096C133.267 42.792 133.203 42.524 133.075 42.292C132.955 42.052 132.783 41.868 132.559 41.74C132.343 41.604 132.087 41.536 131.791 41.536C131.503 41.536 131.247 41.604 131.023 41.74C130.807 41.868 130.635 42.052 130.507 42.292C130.387 42.524 130.327 42.792 130.327 43.096C130.327 43.408 130.387 43.684 130.507 43.924C130.635 44.156 130.807 44.34 131.023 44.476C131.247 44.604 131.503 44.668 131.791 44.668ZM133.183 46V44.44L133.435 43.024L133.183 41.632V40.204H134.743V46H133.183ZM140.034 46V42.676C140.034 42.332 139.926 42.052 139.71 41.836C139.494 41.62 139.214 41.512 138.87 41.512C138.646 41.512 138.446 41.56 138.27 41.656C138.094 41.752 137.954 41.888 137.85 42.064C137.754 42.24 137.706 42.444 137.706 42.676L137.094 42.364C137.094 41.908 137.19 41.512 137.382 41.176C137.582 40.832 137.854 40.564 138.198 40.372C138.55 40.18 138.946 40.084 139.386 40.084C139.81 40.084 140.19 40.192 140.526 40.408C140.862 40.616 141.126 40.892 141.318 41.236C141.51 41.572 141.605 41.936 141.605 42.328V46H140.034ZM136.134 46V40.204H137.706V46H136.134ZM145.644 46.12C145.036 46.12 144.496 45.992 144.024 45.736C143.552 45.472 143.176 45.112 142.896 44.656C142.624 44.2 142.488 43.68 142.488 43.096C142.488 42.52 142.62 42.008 142.884 41.56C143.156 41.104 143.524 40.744 143.988 40.48C144.452 40.208 144.968 40.072 145.536 40.072C146.096 40.072 146.588 40.2 147.012 40.456C147.444 40.704 147.78 41.048 148.02 41.488C148.268 41.92 148.392 42.412 148.392 42.964C148.392 43.068 148.384 43.176 148.368 43.288C148.36 43.392 148.34 43.512 148.308 43.648L143.436 43.66V42.484L147.576 42.472L146.94 42.964C146.924 42.62 146.86 42.332 146.748 42.1C146.644 41.868 146.488 41.692 146.28 41.572C146.08 41.444 145.832 41.38 145.536 41.38C145.224 41.38 144.952 41.452 144.72 41.596C144.488 41.732 144.308 41.928 144.18 42.184C144.06 42.432 144 42.728 144 43.072C144 43.424 144.064 43.732 144.192 43.996C144.328 44.252 144.52 44.452 144.768 44.596C145.016 44.732 145.304 44.8 145.632 44.8C145.928 44.8 146.196 44.752 146.436 44.656C146.676 44.552 146.884 44.4 147.06 44.2L147.984 45.124C147.704 45.452 147.36 45.7 146.952 45.868C146.552 46.036 146.116 46.12 145.644 46.12ZM149.364 46V37.324H150.936V46H149.364Z" fill="#5F5F5F"/>
<path d="M44.7318 45.6124C42.0563 45.6112 39.4545 44.2225 38.0203 41.7395H13.7458C11.6068 41.7395 9.87288 40.0054 9.87288 37.8666C9.87288 35.7276 11.6068 33.9938 13.7458 33.9938H33.5481L31.3122 30.1209H13.7458C9.4679 30.1209 6 33.5888 6 37.8666C6 42.1445 9.4679 45.6124 13.7458 45.6124H44.7318Z" fill="url(#paint1_linear_1_7)"/>
<path d="M34.6662 35.9302H13.7458C12.6763 35.9302 11.8093 36.797 11.8093 37.8666C11.8093 38.936 12.6763 39.8031 13.7458 39.8031H36.9023L34.6662 35.9302Z" fill="url(#paint2_linear_1_7)"/>
<path d="M35.4681 7.15773C36.8047 9.47524 36.9032 12.4228 35.4698 14.9065L47.6069 35.9287C48.6765 37.7812 48.0419 40.1497 46.1894 41.2193C44.337 42.2887 41.9685 41.6541 40.8991 39.8016L30.9978 22.6523L28.7617 26.5252L37.5449 41.7381C39.6839 45.443 44.4212 46.7123 48.1259 44.5733C51.8305 42.4345 53.0998 37.6972 50.961 33.9923L35.4681 7.15773Z" fill="url(#paint3_linear_1_7)"/>
<path d="M32.1158 20.7158L42.576 38.8334C43.1107 39.7598 44.2951 40.0771 45.2212 39.5424C46.1473 39.0074 46.4646 37.8233 45.9299 36.897L34.3517 16.843L32.1158 20.7158Z" fill="url(#paint4_linear_1_7)"/>
<path d="M6.5188 34.7088C7.85741 32.3923 10.3609 30.8335 13.2286 30.833L25.3658 9.8106C26.4353 7.95825 28.8039 7.32359 30.6563 8.39303C32.5085 9.4625 33.1432 11.8311 32.0738 13.6835L22.1726 30.833H26.6446L35.4279 15.6199C37.5667 11.9152 36.2974 7.17797 32.5928 5.03903C28.888 2.9001 24.1507 4.16943 22.0118 7.87416L6.5188 34.7088Z" fill="url(#paint5_linear_1_7)"/>
<path d="M19.9366 30.833L30.3969 12.7153C30.9316 11.7891 30.6142 10.6048 29.6881 10.07C28.7619 9.53531 27.5776 9.85265 27.0428 10.7788L15.4646 30.833H19.9366Z" fill="url(#paint6_linear_1_7)"/>
<defs>
<linearGradient id="paint0_linear_1_7" x1="72.4143" y1="20.4295" x2="116.391" y2="20.4295" gradientUnits="userSpaceOnUse">
<stop stop-color="#FB0606"/>
<stop offset="1" stop-color="#05CDFF"/>
</linearGradient>
<linearGradient id="paint1_linear_1_7" x1="7.62946" y1="37.8666" x2="45.8944" y2="37.8666" gradientUnits="userSpaceOnUse">
<stop stop-color="#FB0606"/>
<stop offset="1" stop-color="#05CDFF"/>
</linearGradient>
<linearGradient id="paint2_linear_1_7" x1="7.62947" y1="37.8666" x2="45.8944" y2="37.8666" gradientUnits="userSpaceOnUse">
<stop stop-color="#FB0606"/>
<stop offset="1" stop-color="#05CDFF"/>
</linearGradient>
<linearGradient id="paint3_linear_1_7" x1="47.3111" y1="43.1621" x2="28.1787" y2="10.0238" gradientUnits="userSpaceOnUse">
<stop stop-color="#FB0606"/>
<stop offset="1" stop-color="#05CDFF"/>
</linearGradient>
<linearGradient id="paint4_linear_1_7" x1="47.3111" y1="43.1621" x2="28.1787" y2="10.0238" gradientUnits="userSpaceOnUse">
<stop stop-color="#FB0606"/>
<stop offset="1" stop-color="#05CDFF"/>
</linearGradient>
<linearGradient id="paint5_linear_1_7" x1="31.778" y1="6.4502" x2="12.6456" y2="39.5886" gradientUnits="userSpaceOnUse">
<stop stop-color="#FB0606"/>
<stop offset="1" stop-color="#05CDFF"/>
</linearGradient>
<linearGradient id="paint6_linear_1_7" x1="31.778" y1="6.4502" x2="12.6456" y2="39.5886" gradientUnits="userSpaceOnUse">
<stop stop-color="#FB0606"/>
<stop offset="1" stop-color="#05CDFF"/>
</linearGradient>
</defs>
</svg>
