<svg width="370" height="122" viewBox="0 0 370 122" fill="none" xmlns="http://www.w3.org/2000/svg">
<path d="M193.375 28.8381V98.6562H179.057L151.273 58.3608H150.83V98.6562H133.955V28.8381H148.478L175.955 69.0653H176.535V28.8381H193.375ZM228.464 99.6449C222.986 99.6449 218.259 98.5653 214.282 96.4062C210.327 94.2244 207.282 91.1222 205.145 87.0994C203.032 83.054 201.975 78.2472 201.975 72.679C201.975 67.2699 203.043 62.5426 205.179 58.4972C207.316 54.429 210.327 51.2699 214.214 49.0199C218.1 46.7472 222.679 45.6108 227.952 45.6108C231.679 45.6108 235.089 46.1903 238.179 47.3494C241.27 48.5085 243.941 50.2244 246.191 52.4972C248.441 54.7699 250.191 57.5767 251.441 60.9176C252.691 64.2358 253.316 68.0426 253.316 72.3381V76.4972H207.804V66.8153H237.804C237.782 65.0426 237.361 63.4631 236.543 62.0767C235.725 60.6903 234.6 59.6108 233.168 58.8381C231.759 58.0426 230.134 57.6449 228.293 57.6449C226.429 57.6449 224.759 58.0653 223.282 58.9062C221.804 59.7244 220.634 60.8494 219.77 62.2812C218.907 63.6903 218.452 65.2926 218.407 67.0881V76.9403C218.407 79.0767 218.827 80.9517 219.668 82.5653C220.509 84.1562 221.702 85.3949 223.248 86.2812C224.793 87.1676 226.634 87.6108 228.77 87.6108C230.248 87.6108 231.589 87.4062 232.793 86.9972C233.998 86.5881 235.032 85.9858 235.895 85.1903C236.759 84.3949 237.407 83.4176 237.839 82.2585L253.145 82.7017C252.509 86.1335 251.111 89.1222 248.952 91.6676C246.816 94.1903 244.009 96.1562 240.532 97.5653C237.054 98.9517 233.032 99.6449 228.464 99.6449ZM275.262 46.2926L283.887 63.5426L292.819 46.2926H309.625L295 72.4744L310.171 98.6562H293.5L283.887 81.2699L274.512 98.6562H257.603L272.807 72.4744L258.353 46.2926H275.262ZM339.804 99.6449C334.304 99.6449 329.577 98.5199 325.623 96.2699C321.691 93.9972 318.657 90.8381 316.52 86.7926C314.407 82.7244 313.35 78.0085 313.35 72.6449C313.35 67.2585 314.407 62.5426 316.52 58.4972C318.657 54.429 321.691 51.2699 325.623 49.0199C329.577 46.7472 334.304 45.6108 339.804 45.6108C345.304 45.6108 350.02 46.7472 353.952 49.0199C357.907 51.2699 360.941 54.429 363.054 58.4972C365.191 62.5426 366.259 67.2585 366.259 72.6449C366.259 78.0085 365.191 82.7244 363.054 86.7926C360.941 90.8381 357.907 93.9972 353.952 96.2699C350.02 98.5199 345.304 99.6449 339.804 99.6449ZM339.907 87.0653C341.907 87.0653 343.6 86.4517 344.986 85.2244C346.373 83.9972 347.429 82.2926 348.157 80.1108C348.907 77.929 349.282 75.4062 349.282 72.5426C349.282 69.6335 348.907 67.0881 348.157 64.9062C347.429 62.7244 346.373 61.0199 344.986 59.7926C343.6 58.5653 341.907 57.9517 339.907 57.9517C337.839 57.9517 336.089 58.5653 334.657 59.7926C333.248 61.0199 332.168 62.7244 331.418 64.9062C330.691 67.0881 330.327 69.6335 330.327 72.5426C330.327 75.4062 330.691 77.929 331.418 80.1108C332.168 82.2926 333.248 83.9972 334.657 85.2244C336.089 86.4517 337.839 87.0653 339.907 87.0653Z" fill="#121111"/>
<path d="M193.375 28.8381H195.875V26.3381H193.375V28.8381ZM193.375 98.6562V101.156H195.875V98.6562H193.375ZM179.057 98.6562L176.999 100.075L177.744 101.156H179.057V98.6562ZM151.273 58.3608L153.331 56.9417L152.586 55.8608H151.273V58.3608ZM150.83 58.3608V55.8608H148.33V58.3608H150.83ZM150.83 98.6562V101.156H153.33V98.6562H150.83ZM133.955 98.6562H131.455V101.156H133.955V98.6562ZM133.955 28.8381V26.3381H131.455V28.8381H133.955ZM148.478 28.8381L150.542 27.428L149.798 26.3381H148.478V28.8381ZM175.955 69.0653L173.891 70.4754L174.635 71.5653H175.955V69.0653ZM176.535 69.0653V71.5653H179.035V69.0653H176.535ZM176.535 28.8381V26.3381H174.035V28.8381H176.535ZM190.875 28.8381V98.6562H195.875V28.8381H190.875ZM193.375 96.1562H179.057V101.156H193.375V96.1562ZM181.115 97.2371L153.331 56.9417L149.215 59.7799L176.999 100.075L181.115 97.2371ZM151.273 55.8608H150.83V60.8608H151.273V55.8608ZM148.33 58.3608V98.6562H153.33V58.3608H148.33ZM150.83 96.1562H133.955V101.156H150.83V96.1562ZM136.455 98.6562V28.8381H131.455V98.6562H136.455ZM133.955 31.3381H148.478V26.3381H133.955V31.3381ZM146.413 30.2481L173.891 70.4754L178.019 67.6553L150.542 27.428L146.413 30.2481ZM175.955 71.5653H176.535V66.5653H175.955V71.5653ZM179.035 69.0653V28.8381H174.035V69.0653H179.035ZM176.535 31.3381H193.375V26.3381H176.535V31.3381ZM214.282 96.4062L213.074 98.5952L213.081 98.5993L213.089 98.6034L214.282 96.4062ZM205.145 87.0994L202.93 88.2571L202.933 88.2646L202.937 88.272L205.145 87.0994ZM205.179 58.4972L207.39 59.6646L207.393 59.6595L205.179 58.4972ZM214.214 49.0199L215.466 51.1835L215.476 51.178L214.214 49.0199ZM238.179 47.3494L239.057 45.0086L239.057 45.0086L238.179 47.3494ZM251.441 60.9176L249.099 61.7937L249.101 61.7989L251.441 60.9176ZM253.316 76.4972V78.9972H255.816V76.4972H253.316ZM207.804 76.4972H205.304V78.9972H207.804V76.4972ZM207.804 66.8153V64.3153H205.304V66.8153H207.804ZM237.804 66.8153V69.3153H240.337L240.304 66.7833L237.804 66.8153ZM233.168 58.8381L231.939 61.0151L231.96 61.0268L231.981 61.0381L233.168 58.8381ZM223.282 58.9062L224.493 61.0932L224.506 61.0861L224.518 61.0789L223.282 58.9062ZM219.77 62.2812L221.902 63.5877L221.906 63.5801L221.911 63.5725L219.77 62.2812ZM218.407 67.0881L215.907 67.0248L215.907 67.0564V67.0881H218.407ZM219.668 82.5653L217.451 83.7207L217.454 83.7272L217.458 83.7336L219.668 82.5653ZM223.248 86.2812L222.004 88.4499L222.004 88.4499L223.248 86.2812ZM232.793 86.9972L233.597 89.3644L233.597 89.3644L232.793 86.9972ZM235.895 85.1903L237.589 87.0292L237.589 87.0292L235.895 85.1903ZM237.839 82.2585L237.911 79.7596L236.121 79.7077L235.496 81.3857L237.839 82.2585ZM253.145 82.7017L255.603 83.1575L256.136 80.2872L253.218 80.2028L253.145 82.7017ZM248.952 91.6676L247.046 90.0505L247.044 90.052L248.952 91.6676ZM240.532 97.5653L241.458 99.8876L241.471 99.8823L240.532 97.5653ZM228.464 97.1449C223.316 97.1449 219.016 96.1317 215.474 94.2091L213.089 98.6034C217.502 100.999 222.657 102.145 228.464 102.145V97.1449ZM215.489 94.2173C211.964 92.2721 209.264 89.5247 207.353 85.9268L202.937 88.272C205.299 92.7196 208.691 96.1768 213.074 98.5952L215.489 94.2173ZM207.361 85.9417C205.471 82.3239 204.475 77.9316 204.475 72.679H199.475C199.475 78.5627 200.592 83.784 202.93 88.2571L207.361 85.9417ZM204.475 72.679C204.475 67.6027 205.476 63.29 207.39 59.6646L202.969 57.3297C200.611 61.7952 199.475 66.9371 199.475 72.679H204.475ZM207.393 59.6595C209.315 55.9988 211.998 53.1913 215.466 51.1834L212.961 46.8563C208.656 49.3484 205.316 52.8592 202.966 57.3348L207.393 59.6595ZM215.476 51.178C218.918 49.1649 223.046 48.1108 227.952 48.1108V43.1108C222.313 43.1108 217.282 44.3294 212.951 46.8618L215.476 51.178ZM227.952 48.1108C231.418 48.1108 234.525 48.6491 237.302 49.6903L239.057 45.0086C235.652 43.7316 231.941 43.1108 227.952 43.1108V48.1108ZM237.302 49.6903C240.066 50.7267 242.426 52.2483 244.414 54.256L247.967 50.7383C245.455 48.2006 242.475 46.2903 239.057 45.0086L237.302 49.6903ZM244.414 54.256C246.388 56.2501 247.959 58.7453 249.099 61.7937L253.782 60.0415C252.423 56.4081 250.493 53.2896 247.967 50.7383L244.414 54.256ZM249.101 61.7989C250.225 64.7828 250.816 68.2819 250.816 72.3381H255.816C255.816 67.8034 255.156 63.6887 253.78 60.0363L249.101 61.7989ZM250.816 72.3381V76.4972H255.816V72.3381H250.816ZM253.316 73.9972H207.804V78.9972H253.316V73.9972ZM210.304 76.4972V66.8153H205.304V76.4972H210.304ZM207.804 69.3153H237.804V64.3153H207.804V69.3153ZM240.304 66.7833C240.276 64.6199 239.758 62.6052 238.696 60.8061L234.39 63.3473C234.965 64.3209 235.287 65.4654 235.305 66.8474L240.304 66.7833ZM238.696 60.8061C237.644 59.0234 236.183 57.6244 234.355 56.638L231.981 61.0381C233.017 61.5972 233.806 62.3573 234.39 63.3473L238.696 60.8061ZM234.397 56.661C232.564 55.6261 230.504 55.1449 228.293 55.1449V60.1449C229.764 60.1449 230.954 60.4591 231.939 61.0151L234.397 56.661ZM228.293 55.1449C226.039 55.1449 223.935 55.6579 222.045 56.7336L224.518 61.0789C225.583 60.4728 226.82 60.1449 228.293 60.1449V55.1449ZM222.07 56.7193C220.214 57.7473 218.722 59.1795 217.63 60.99L221.911 63.5725C222.546 62.5194 223.395 61.7016 224.493 61.0932L222.07 56.7193ZM217.639 60.9748C216.526 62.7909 215.963 64.8291 215.907 67.0248L220.906 67.1513C220.941 65.7561 221.288 64.5898 221.902 63.5877L217.639 60.9748ZM215.907 67.0881V76.9403H220.907V67.0881H215.907ZM215.907 76.9403C215.907 79.409 216.394 81.693 217.451 83.7207L221.885 81.41C221.26 80.2104 220.907 78.7444 220.907 76.9403H215.907ZM217.458 83.7336C218.517 85.7382 220.044 87.3257 222.004 88.4499L224.491 84.1126C223.361 83.4641 222.501 82.5743 221.878 81.3971L217.458 83.7336ZM222.004 88.4499C223.997 89.5929 226.285 90.1108 228.77 90.1108V85.1108C226.983 85.1108 225.589 84.7423 224.491 84.1126L222.004 88.4499ZM228.77 90.1108C230.478 90.1108 232.096 89.8743 233.597 89.3644L231.989 84.63C231.081 84.9382 230.017 85.1108 228.77 85.1108V90.1108ZM233.597 89.3644C235.104 88.8526 236.448 88.0801 237.589 87.0292L234.202 83.3515C233.615 83.8915 232.891 84.3235 231.989 84.63L233.597 89.3644ZM237.589 87.0292C238.757 85.953 239.62 84.6387 240.181 83.1313L235.496 81.3857C235.194 82.1965 234.76 82.8368 234.202 83.3515L237.589 87.0292ZM237.766 84.7575L253.073 85.2007L253.218 80.2028L237.911 79.7596L237.766 84.7575ZM250.687 82.2459C250.127 85.2695 248.91 87.8529 247.046 90.0505L250.859 93.2848C253.313 90.3914 254.891 86.9975 255.603 83.1575L250.687 82.2459ZM247.044 90.052C245.203 92.2265 242.746 93.9705 239.593 95.2484L241.471 99.8823C245.272 98.342 248.429 96.1542 250.86 93.2832L247.044 90.052ZM239.606 95.2431C236.48 96.4893 232.782 97.1449 228.464 97.1449V102.145C233.281 102.145 237.629 101.414 241.458 99.8876L239.606 95.2431ZM275.262 46.2926L277.498 45.1746L276.807 43.7926H275.262V46.2926ZM283.887 63.5426L281.651 64.6606L283.848 69.0549L286.107 64.6921L283.887 63.5426ZM292.819 46.2926V43.7926H291.298L290.599 45.1431L292.819 46.2926ZM309.625 46.2926L311.808 47.5118L313.886 43.7926H309.625V46.2926ZM295 72.4744L292.818 71.2553L292.124 72.4971L292.837 73.7278L295 72.4744ZM310.171 98.6562V101.156H314.509L312.334 97.4029L310.171 98.6562ZM293.5 98.6562L291.313 99.866L292.026 101.156H293.5V98.6562ZM283.887 81.2699L286.075 80.0602L283.859 76.0536L281.686 80.0834L283.887 81.2699ZM274.512 98.6562V101.156H276.004L276.712 99.8428L274.512 98.6562ZM257.603 98.6562L255.441 97.4008L253.26 101.156H257.603V98.6562ZM272.807 72.4744L274.969 73.7299L275.68 72.5056L274.996 71.2661L272.807 72.4744ZM258.353 46.2926V43.7926H254.117L256.164 47.5009L258.353 46.2926ZM273.026 47.4106L281.651 64.6606L286.123 62.4246L277.498 45.1746L273.026 47.4106ZM286.107 64.6921L295.039 47.4421L290.599 45.1431L281.667 62.3931L286.107 64.6921ZM292.819 48.7926H309.625V43.7926H292.819V48.7926ZM307.443 45.0734L292.818 71.2553L297.183 73.6936L311.808 47.5118L307.443 45.0734ZM292.837 73.7278L308.008 99.9096L312.334 97.4029L297.164 71.2211L292.837 73.7278ZM310.171 96.1562H293.5V101.156H310.171V96.1562ZM295.688 97.4465L286.075 80.0602L281.699 82.4796L291.313 99.866L295.688 97.4465ZM281.686 80.0834L272.311 97.4697L276.712 99.8428L286.087 82.4564L281.686 80.0834ZM274.512 96.1562H257.603V101.156H274.512V96.1562ZM259.765 99.9117L274.969 73.7299L270.645 71.219L255.441 97.4008L259.765 99.9117ZM274.996 71.2661L260.541 45.0843L256.164 47.5009L270.619 73.6827L274.996 71.2661ZM258.353 48.7926H275.262V43.7926H258.353V48.7926ZM325.623 96.2699L324.371 98.4343L324.379 98.4386L324.386 98.4428L325.623 96.2699ZM316.52 86.7926L314.302 87.9452L314.306 87.9526L314.31 87.96L316.52 86.7926ZM316.52 58.4972L314.307 57.3348L314.305 57.3395L316.52 58.4972ZM325.623 49.0199L326.864 51.1897L326.868 51.1874L325.623 49.0199ZM353.952 49.0199L352.701 51.1843L352.708 51.1886L352.716 51.1928L353.952 49.0199ZM363.054 58.4972L360.836 59.6498L360.84 59.6572L360.844 59.6646L363.054 58.4972ZM363.054 86.7926L360.841 85.6303L360.839 85.6349L363.054 86.7926ZM353.952 96.2699L355.194 98.4397L355.198 98.4374L353.952 96.2699ZM344.986 85.2244L343.329 83.3525L343.329 83.3525L344.986 85.2244ZM348.157 80.1108L345.792 79.2981L345.789 79.3091L345.785 79.3202L348.157 80.1108ZM348.157 64.9062L345.785 65.6968L345.789 65.7079L345.792 65.7189L348.157 64.9062ZM344.986 59.7926L346.643 57.9207L346.643 57.9207L344.986 59.7926ZM334.657 59.7926L333.03 57.8945L333.022 57.9009L333.015 57.9074L334.657 59.7926ZM331.418 64.9062L329.054 64.0936L329.05 64.1046L329.046 64.1157L331.418 64.9062ZM331.418 80.1108L329.046 80.9014L329.05 80.9124L329.054 80.9235L331.418 80.1108ZM334.657 85.2244L333.015 87.1096L333.022 87.1161L333.03 87.1226L334.657 85.2244ZM339.804 97.1449C334.648 97.1449 330.365 96.092 326.859 94.097L324.386 98.4428C328.789 100.948 333.961 102.145 339.804 102.145V97.1449ZM326.874 94.1055C323.352 92.07 320.649 89.2579 318.731 85.6252L314.31 87.96C316.664 92.4182 320.029 95.9243 324.371 98.4343L326.874 94.1055ZM318.739 85.64C316.839 81.9838 315.85 77.6755 315.85 72.6449H310.85C310.85 78.3415 311.974 83.465 314.302 87.9452L318.739 85.64ZM315.85 72.6449C315.85 67.5892 316.84 63.2838 318.736 59.6548L314.305 57.3395C311.973 61.8014 310.85 66.9278 310.85 72.6449H315.85ZM318.734 59.6595C320.652 56.0064 323.352 53.1997 326.864 51.1897L324.381 46.85C320.03 49.3401 316.661 52.8515 314.307 57.3348L318.734 59.6595ZM326.868 51.1874C330.373 49.1733 334.652 48.1108 339.804 48.1108V43.1108C333.957 43.1108 328.781 44.321 324.377 46.8523L326.868 51.1874ZM339.804 48.1108C344.958 48.1108 349.222 49.1735 352.701 51.1843L355.203 46.8555C350.818 44.3208 345.651 43.1108 339.804 43.1108V48.1108ZM352.716 51.1928C356.248 53.2025 358.943 56.0058 360.836 59.6498L365.273 57.3446C362.939 52.8522 359.565 49.3372 355.188 46.847L352.716 51.1928ZM360.844 59.6646C362.759 63.2914 363.759 67.5933 363.759 72.6449H368.759C368.759 66.9238 367.623 61.7938 365.265 57.3297L360.844 59.6646ZM363.759 72.6449C363.759 77.6714 362.76 81.9762 360.841 85.6303L365.268 87.9549C367.622 83.4726 368.759 78.3456 368.759 72.6449H363.759ZM360.839 85.6349C358.945 89.2585 356.248 92.0671 352.706 94.1024L355.198 98.4374C359.566 95.9272 362.936 92.4176 365.27 87.9503L360.839 85.6349ZM352.71 94.1001C349.23 96.0918 344.962 97.1449 339.804 97.1449V102.145C345.647 102.145 350.811 100.948 355.194 98.4397L352.71 94.1001ZM339.907 89.5653C342.464 89.5653 344.762 88.7621 346.643 87.0963L343.329 83.3525C342.438 84.1413 341.349 84.5653 339.907 84.5653V89.5653ZM346.643 87.0963C348.43 85.515 349.695 83.4002 350.528 80.9014L345.785 79.3202C345.163 81.185 344.316 82.4793 343.329 83.3525L346.643 87.0963ZM350.521 80.9235C351.379 78.4258 351.782 75.6188 351.782 72.5426H346.782C346.782 75.1937 346.434 77.4322 345.792 79.2981L350.521 80.9235ZM351.782 72.5426C351.782 69.4259 351.381 66.5949 350.521 64.0936L345.792 65.7189C346.433 67.5812 346.782 69.8412 346.782 72.5426H351.782ZM350.528 64.1157C349.695 61.6168 348.43 59.502 346.643 57.9207L343.329 61.6645C344.316 62.5377 345.163 63.832 345.785 65.6968L350.528 64.1157ZM346.643 57.9207C344.762 56.2549 342.464 55.4517 339.907 55.4517V60.4517C341.349 60.4517 342.438 60.8758 343.329 61.6645L346.643 57.9207ZM339.907 55.4517C337.304 55.4517 334.96 56.2403 333.03 57.8945L336.284 61.6908C337.217 60.8904 338.373 60.4517 339.907 60.4517V55.4517ZM333.015 57.9074C331.206 59.483 329.913 61.5936 329.054 64.0936L333.782 65.7189C334.423 63.8553 335.289 62.5568 336.299 61.6778L333.015 57.9074ZM329.046 64.1157C328.215 66.6097 327.827 69.4326 327.827 72.5426H332.827C332.827 69.8344 333.167 67.5665 333.79 65.6968L329.046 64.1157ZM327.827 72.5426C327.827 75.6119 328.216 78.411 329.046 80.9014L333.79 79.3202C333.165 77.447 332.827 75.2006 332.827 72.5426H327.827ZM329.054 80.9235C329.913 83.4234 331.206 85.534 333.015 87.1096L336.299 83.3392C335.289 82.4603 334.423 81.1618 333.782 79.2981L329.054 80.9235ZM333.03 87.1226C334.96 88.7768 337.304 89.5653 339.907 89.5653V84.5653C338.373 84.5653 337.217 84.1266 336.284 83.3263L333.03 87.1226Z" fill="url(#paint0_linear_2002_35)"/>
<path d="M101.801 108.826C94.8217 108.824 88.0345 105.201 84.2929 98.7232H20.9688C15.3891 98.7232 10.8658 94.1999 10.8658 88.6202C10.8658 83.0404 15.3891 78.5171 20.9688 78.5171H72.6269L66.7939 68.4141H20.9688C9.80928 68.4141 0.762695 77.4607 0.762695 88.6202C0.762695 99.7797 9.80928 108.826 20.9688 108.826L101.801 108.826Z" fill="url(#paint1_linear_2002_35)"/>
<path d="M75.5434 83.5687H20.9688C18.1789 83.5687 15.9173 85.8303 15.9173 88.6202C15.9173 91.4101 18.1789 93.6717 20.9688 93.6717H81.3764L75.5434 83.5687Z" fill="url(#paint2_linear_2002_35)"/>
<path d="M77.6361 8.50781C81.1234 14.5534 81.3798 22.2426 77.6406 28.7218L109.303 83.562C112.093 88.3943 110.437 94.5732 105.605 97.3631C100.772 100.153 94.5935 98.4973 91.8036 93.6651L65.9746 48.9279L60.1416 59.031L83.0541 98.7166C88.6339 108.381 100.992 111.692 110.656 106.113C120.321 100.533 123.632 88.175 118.052 78.5105L77.6361 8.50781Z" fill="url(#paint3_linear_2002_35)"/>
<path d="M68.8911 43.8764L96.1784 91.1393C97.5733 93.5555 100.663 94.3833 103.079 92.9883C105.495 91.5934 106.323 88.5039 104.928 86.0878L74.7241 33.7733L68.8911 43.8764Z" fill="url(#paint4_linear_2002_35)"/>
<path d="M2.11719 80.3826C5.60919 74.3397 12.14 70.273 19.6207 70.2716L51.2828 15.4314C54.0727 10.5992 60.2516 8.94354 65.0838 11.7334C69.916 14.5233 71.5717 20.7022 68.7818 25.5345L42.9528 70.2716H54.6188L77.5313 30.586C83.1111 20.9215 79.7998 8.56368 70.1353 2.98392C60.4709 -2.59585 48.113 0.715434 42.5333 10.3799L2.11719 80.3826Z" fill="url(#paint5_linear_2002_35)"/>
<path d="M37.1198 70.2716L64.407 23.0087C65.802 20.5926 64.9742 17.5031 62.558 16.1082C60.1419 14.7132 57.0525 15.5411 55.6575 17.9572L25.4538 70.2716L37.1198 70.2716Z" fill="url(#paint6_linear_2002_35)"/>
<defs>
<linearGradient id="paint0_linear_2002_35" x1="164.228" y1="63.6562" x2="270.591" y2="63.6562" gradientUnits="userSpaceOnUse">
<stop stop-color="#FB0606"/>
<stop offset="1" stop-color="#05CDFF"/>
</linearGradient>
<linearGradient id="paint1_linear_2002_35" x1="5.01343" y1="88.6202" x2="104.834" y2="88.6202" gradientUnits="userSpaceOnUse">
<stop stop-color="#FB0606"/>
<stop offset="1" stop-color="#05CDFF"/>
</linearGradient>
<linearGradient id="paint2_linear_2002_35" x1="5.01343" y1="88.6202" x2="104.834" y2="88.6202" gradientUnits="userSpaceOnUse">
<stop stop-color="#FB0606"/>
<stop offset="1" stop-color="#05CDFF"/>
</linearGradient>
<linearGradient id="paint3_linear_2002_35" x1="108.531" y1="102.431" x2="58.6207" y2="15.9845" gradientUnits="userSpaceOnUse">
<stop stop-color="#FB0606"/>
<stop offset="1" stop-color="#05CDFF"/>
</linearGradient>
<linearGradient id="paint4_linear_2002_35" x1="108.531" y1="102.431" x2="58.6207" y2="15.9845" gradientUnits="userSpaceOnUse">
<stop stop-color="#FB0606"/>
<stop offset="1" stop-color="#05CDFF"/>
</linearGradient>
<linearGradient id="paint5_linear_2002_35" x1="68.01" y1="6.66521" x2="18.0999" y2="93.1121" gradientUnits="userSpaceOnUse">
<stop stop-color="#FB0606"/>
<stop offset="1" stop-color="#05CDFF"/>
</linearGradient>
<linearGradient id="paint6_linear_2002_35" x1="68.01" y1="6.66521" x2="18.0999" y2="93.1121" gradientUnits="userSpaceOnUse">
<stop stop-color="#FB0606"/>
<stop offset="1" stop-color="#05CDFF"/>
</linearGradient>
</defs>
</svg>
